<?xml version="1.0" encoding="UTF-8" standalone="no"?><!DOCTYPE svg PUBLIC "-//W3C//DTD SVG 1.1//EN" "http://www.w3.org/Graphics/SVG/1.1/DTD/svg11.dtd"><svg width="100%" height="100%" viewBox="0 0 500 500" version="1.1" xmlns="http://www.w3.org/2000/svg" xmlns:xlink="http://www.w3.org/1999/xlink" xml:space="preserve" xmlns:serif="http://www.serif.com/" style="fill-rule:evenodd;clip-rule:evenodd;stroke-linejoin:round;stroke-miterlimit:2;"><g id="レイヤー1"><path d="M1.331,275.925c-0.88,-8.523 -1.331,-17.172 -1.331,-25.925c0,-137.979 112.021,-250 250,-250c15.622,-0 30.912,1.436 45.744,4.183l-294.414,271.742Zm380.703,-238.208c70.809,44.162 117.967,122.759 117.967,212.283c0,27.532 -4.46,54.031 -12.697,78.813l-288.08,122.522l161.642,-214.445c3.749,-4.974 4.037,-11.746 0.723,-17.02c-3.314,-5.274 -9.54,-7.952 -15.648,-6.732l-291.124,58.16l327.218,-233.58Zm87.952,331.08c-42.303,78.107 -124.992,131.202 -219.985,131.202c-23.23,0 -45.725,-3.175 -67.073,-9.115l287.058,-122.087Zm-326.94,107.198c-66.595,-31.603 -117.04,-91.782 -135.45,-164.655l305.577,-61.047l-170.127,225.702Z" style="fill:#475569;"/></g></svg>